<mxfile host="app.diagrams.net" modified="2021-10-27T10:30:16.266Z" agent="5.0 (Windows NT 10.0; Win64; x64) AppleWebKit/537.36 (KHTML, like Gecko) Chrome/95.0.4638.54 Safari/537.36" etag="IQDH3vW0kbNos9L4NGsz" version="15.5.9" type="github">
  <diagram id="9-oRWDW0HbsR68lSSbi7" name="Page-1">
    <mxGraphModel dx="1185" dy="643" grid="1" gridSize="1" guides="1" tooltips="1" connect="1" arrows="1" fold="1" page="1" pageScale="1" pageWidth="827" pageHeight="1169" math="0" shadow="0">
      <root>
        <mxCell id="0" />
        <mxCell id="1" parent="0" />
        <mxCell id="DJ_yCbzOt3I6CyTo2pp7-3" value="" style="edgeStyle=orthogonalEdgeStyle;rounded=0;orthogonalLoop=1;jettySize=auto;html=1;" edge="1" parent="1" source="DJ_yCbzOt3I6CyTo2pp7-1" target="DJ_yCbzOt3I6CyTo2pp7-2">
          <mxGeometry relative="1" as="geometry" />
        </mxCell>
        <mxCell id="DJ_yCbzOt3I6CyTo2pp7-1" value="车辆停车" style="rounded=1;whiteSpace=wrap;html=1;" vertex="1" parent="1">
          <mxGeometry x="91" y="114" width="120" height="60" as="geometry" />
        </mxCell>
        <mxCell id="DJ_yCbzOt3I6CyTo2pp7-5" value="" style="edgeStyle=orthogonalEdgeStyle;rounded=0;orthogonalLoop=1;jettySize=auto;html=1;" edge="1" parent="1" source="DJ_yCbzOt3I6CyTo2pp7-2" target="DJ_yCbzOt3I6CyTo2pp7-4">
          <mxGeometry relative="1" as="geometry" />
        </mxCell>
        <mxCell id="DJ_yCbzOt3I6CyTo2pp7-2" value="PDA录入" style="rounded=1;whiteSpace=wrap;html=1;" vertex="1" parent="1">
          <mxGeometry x="91" y="254" width="120" height="60" as="geometry" />
        </mxCell>
        <mxCell id="DJ_yCbzOt3I6CyTo2pp7-7" value="" style="edgeStyle=orthogonalEdgeStyle;rounded=0;orthogonalLoop=1;jettySize=auto;html=1;" edge="1" parent="1" source="DJ_yCbzOt3I6CyTo2pp7-4" target="DJ_yCbzOt3I6CyTo2pp7-6">
          <mxGeometry relative="1" as="geometry" />
        </mxCell>
        <mxCell id="DJ_yCbzOt3I6CyTo2pp7-4" value="服务端计费" style="rounded=1;whiteSpace=wrap;html=1;" vertex="1" parent="1">
          <mxGeometry x="91" y="394" width="120" height="60" as="geometry" />
        </mxCell>
        <mxCell id="DJ_yCbzOt3I6CyTo2pp7-9" value="" style="edgeStyle=orthogonalEdgeStyle;rounded=0;orthogonalLoop=1;jettySize=auto;html=1;" edge="1" parent="1" source="DJ_yCbzOt3I6CyTo2pp7-6" target="DJ_yCbzOt3I6CyTo2pp7-8">
          <mxGeometry relative="1" as="geometry" />
        </mxCell>
        <mxCell id="DJ_yCbzOt3I6CyTo2pp7-6" value="生成订单" style="rounded=1;whiteSpace=wrap;html=1;" vertex="1" parent="1">
          <mxGeometry x="91" y="534" width="120" height="60" as="geometry" />
        </mxCell>
        <mxCell id="DJ_yCbzOt3I6CyTo2pp7-8" value="支付" style="rounded=1;whiteSpace=wrap;html=1;" vertex="1" parent="1">
          <mxGeometry x="91" y="674" width="120" height="60" as="geometry" />
        </mxCell>
      </root>
    </mxGraphModel>
  </diagram>
</mxfile>
